<mxfile host="app.diagrams.net" modified="2022-04-01T18:33:25.801Z" agent="5.0 (X11)" etag="2ZrrwMSw6jKiwaiBw1S3" version="17.4.0" type="github">
  <diagram id="OdhzibToE99V7z4Sx5iw" name="Page-1">
    <mxGraphModel dx="862" dy="452" grid="1" gridSize="10" guides="1" tooltips="1" connect="1" arrows="1" fold="1" page="1" pageScale="1" pageWidth="850" pageHeight="1100" math="0" shadow="0">
      <root>
        <mxCell id="0" />
        <mxCell id="1" parent="0" />
        <mxCell id="Ivey2V67rT_qGiQ16OtV-1" value="" style="rounded=0;whiteSpace=wrap;html=1;" vertex="1" parent="1">
          <mxGeometry x="150" y="90" width="120" height="60" as="geometry" />
        </mxCell>
      </root>
    </mxGraphModel>
  </diagram>
</mxfile>
